<?xml version="1.0" encoding="iso-8859-1"?>
<!-- Generator: Adobe Illustrator 19.0.0, SVG Export Plug-In . SVG Version: 6.00 Build 0)  -->
<svg version="1.1" id="Capa_1" xmlns="http://www.w3.org/2000/svg" xmlns:xlink="http://www.w3.org/1999/xlink" x="0px" y="0px"
	 viewBox="0 0 59 59" style="enable-background:new 0 0 59 59;" xml:space="preserve">
<g>
	<g>
		<path d="M52.224,53h-0.556c0.344-0.591,0.556-1.268,0.556-2c0-1.489-0.828-2.776-2.038-3.465L48.319,27h0.405
			c1.93,0,3.5-1.57,3.5-3.5c0-1.182-0.593-2.225-1.494-2.859c0.31-0.472,0.494-1.035,0.494-1.641c0-0.432-0.095-0.84-0.26-1.211
			L56.776,5h-6.119l-3,5h-2.214l1-5h-8.439l1,5H36.79l-3-5h-6.119l5.813,12.789c-0.165,0.371-0.26,0.78-0.26,1.211
			c0,0.606,0.184,1.168,0.494,1.641c-0.901,0.634-1.494,1.677-1.494,2.859c0,1.93,1.57,3.5,3.5,3.5h0.405l-1.867,20.535
			c-1.211,0.688-2.038,1.975-2.038,3.465c0,0.732,0.212,1.409,0.556,2h-0.556c-1.654,0-3,1.346-3,3s1.346,3,3,3h20
			c1.654,0,3-1.346,3-3S53.878,53,52.224,53z M36.224,18h12c0.552,0,1,0.449,1,1s-0.448,1-1,1h-12c-0.552,0-1-0.449-1-1
			S35.672,18,36.224,18z M32.657,7l2.555,4.257C35.487,11.715,35.991,12,36.525,12h3.048c0.462,0,0.894-0.205,1.187-0.562
			c0.292-0.357,0.407-0.821,0.316-1.272L40.443,7h3.561l-0.633,3.165c-0.091,0.453,0.024,0.917,0.316,1.273
			C43.98,11.795,44.412,12,44.874,12h3.048c0.534,0,1.038-0.285,1.314-0.744L51.79,7h1.881l-4.091,9h-1.356h-12h-1.356l-4.091-9
			H32.657z M35.724,25c-0.827,0-1.5-0.673-1.5-1.5s0.673-1.5,1.5-1.5h0.5h12h0.5c0.827,0,1.5,0.673,1.5,1.5s-0.673,1.5-1.5,1.5
			h-0.587H36.311H35.724z M46.311,27l1.818,20H36.318l1.818-20H46.311z M34.224,51c0-1.103,0.897-2,2-2h12c1.103,0,2,0.897,2,2
			s-0.897,2-2,2h-12C35.121,53,34.224,52.103,34.224,51z M52.224,57h-20c-0.552,0-1-0.449-1-1s0.448-1,1-1h4h12h4
			c0.552,0,1,0.449,1,1S52.775,57,52.224,57z"/>
		<path d="M25.224,53h-0.556c0.344-0.591,0.556-1.268,0.556-2c0-1.489-0.828-2.776-2.038-3.465L21.319,27h0.405
			c1.93,0,3.5-1.57,3.5-3.5c0-1.679-1.19-3.084-2.771-3.421l1.345-6.05c0.164-0.741-0.015-1.505-0.489-2.097
			C22.833,11.339,22.125,11,21.366,11h-2.143v-1h0.628c1.308,0,2.372-1.064,2.372-2.373V5.373C22.224,4.064,21.159,3,19.852,3
			h-0.628V2.373C19.224,1.064,18.159,0,16.852,0h-3.256c-1.308,0-2.372,1.064-2.372,2.373V3h-0.628C9.288,3,8.224,4.064,8.224,5.373
			v2.255C8.224,8.936,9.288,10,10.596,10h0.628v1H9.081c-0.759,0-1.467,0.339-1.942,0.932c-0.475,0.592-0.653,1.356-0.489,2.098
			l1.345,6.05c-1.581,0.337-2.771,1.742-2.771,3.421c0,1.93,1.57,3.5,3.5,3.5h0.405L7.262,47.535
			C6.051,48.224,5.224,49.511,5.224,51c0,0.732,0.212,1.409,0.556,2H5.224c-1.654,0-3,1.346-3,3s1.346,3,3,3h20c1.654,0,3-1.346,3-3
			S26.878,53,25.224,53z M10.228,37h9.992l0.182,2H10.046L10.228,37z M9.864,41h10.719l0.546,6H9.318L9.864,41z M10.596,8
			c-0.205,0-0.372-0.167-0.372-0.373V5.373C10.224,5.167,10.391,5,10.596,5h2.628V2.373C13.224,2.167,13.391,2,13.596,2h3.256
			c0.205,0,0.372,0.167,0.372,0.373V5h2.628c0.205,0,0.372,0.167,0.372,0.373v2.255C20.224,7.833,20.057,8,19.852,8h-2.628v3h-4V8
			H10.596z M8.698,13.184C8.754,13.115,8.876,13,9.081,13h2.143h8h2.143c0.205,0,0.327,0.115,0.383,0.184
			c0.055,0.068,0.141,0.213,0.096,0.412L20.422,20H10.025l-1.423-6.404C8.558,13.396,8.644,13.252,8.698,13.184z M8.724,25
			c-0.827,0-1.5-0.673-1.5-1.5s0.673-1.5,1.5-1.5h13c0.827,0,1.5,0.673,1.5,1.5s-0.673,1.5-1.5,1.5h-0.587H9.311H8.724z M19.311,27
			l0.727,8H10.41l0.727-8H19.311z M7.224,51c0-1.103,0.897-2,2-2h12c1.103,0,2,0.897,2,2s-0.897,2-2,2h-12
			C8.121,53,7.224,52.103,7.224,51z M25.224,57h-20c-0.552,0-1-0.449-1-1s0.448-1,1-1h4h12h4c0.552,0,1,0.449,1,1
			S25.775,57,25.224,57z"/>
	</g>
</g>
<g>
</g>
<g>
</g>
<g>
</g>
<g>
</g>
<g>
</g>
<g>
</g>
<g>
</g>
<g>
</g>
<g>
</g>
<g>
</g>
<g>
</g>
<g>
</g>
<g>
</g>
<g>
</g>
<g>
</g>
</svg>
