<?xml version="1.0"?>
<svg xmlns:rdf="http://www.w3.org/1999/02/22-rdf-syntax-ns#" xmlns="http://www.w3.org/2000/svg" xmlns:cc="http://creativecommons.org/ns#" xmlns:dc="http://purl.org/dc/elements/1.1/" xmlns:svg="http://www.w3.org/2000/svg" id="svg2" viewBox="0 0 332.65 92.086" version="1.1">
  <title id="title4468">Morse Key</title>
  <defs id="defs4">
    <filter id="filter3933" height="1.5995" width="1.4122" y="-.29976" x="-.20608" color-interpolation-filters="sRGB">
      <feGaussianBlur id="feGaussianBlur3935" stdDeviation="0.4857448"/>
    </filter>
    <filter id="filter3961" height="1.87" width="1.0247" y="-.435" x="-.01234" color-interpolation-filters="sRGB">
      <feGaussianBlur id="feGaussianBlur3963" stdDeviation="0.2563262"/>
    </filter>
    <filter id="filter3973" color-interpolation-filters="sRGB">
      <feGaussianBlur id="feGaussianBlur3975" stdDeviation="0.4649227"/>
    </filter>
    <filter id="filter4259" height="1.227" width="1.0428" y="-.1135" x="-.021393" color-interpolation-filters="sRGB">
      <feGaussianBlur id="feGaussianBlur4261" stdDeviation="1.7025"/>
    </filter>
  </defs>
  <g id="layer2" transform="translate(-101.5 -375.86)">
    <g id="g4399">
      <path id="path4397" stroke-linejoin="round" style="color:#000000" d="m167 385.36c0 4.9706-14.551 9-32.5 9s-32.5-4.0294-32.5-9 14.551-9 32.5-9 32.5 4.0294 32.5 9z" transform="translate(0,2)" stroke="#000" stroke-linecap="round"/>
      <rect id="rect4249" stroke-linejoin="round" style="color:#000000" ry="18" height="36" filter="url(#filter4259)" width="191" stroke="#000" stroke-linecap="round" y="427.36" x="206"/>
      <g id="g4135">
        <g id="g4137" stroke="#000" transform="translate(73.859 -49.395)" fill="#1a1a1a">
          <path id="path4139" stroke-width="1px" d="m333.62 484.3s-4.8731 4.4505-6.0104 7.4246c-0.84292 2.2043-1.3866 4.9492-0.35356 7.0711 1.0735 2.2049 3.7176 3.3726 6.0104 4.2426 0.99777 0.3786 2.2178 0.81093 3.182 0.35356 2.156-1.0227 3.2132-3.7218 3.8891-6.0104 0.3004-1.0172 0-3.182 0-3.182h-1.4142s-0.91745 6.6125-3.5355 7.4246c-2.4712 0.76657-5.567-1.5716-6.7175-3.8891-0.84503-1.7021-0.10016-3.9366 0.7071-5.6568 1.098-2.3399 5.3033-5.6569 5.3033-5.6569z"/>
          <path id="path4141" stroke-width="1px" d="m338.44 487.39s-3.7426 2.2967-4.6354 4.1746c-1.0133 2.1313-1.3866 4.9492-0.35356 7.0711 1.0735 2.2049 3.7176 3.3726 6.0104 4.2426 0.99777 0.3786 2.2178 0.81093 3.182 0.35356 2.156-1.0227 3.2132-3.7218 3.8891-6.0104 0.3004-1.0172 0-3.182 0-3.182h-1.4142s-0.91745 6.6125-3.5355 7.4246c-2.4712 0.76657-5.567-1.5716-6.7175-3.8891-0.84503-1.7021-0.1-3.9365 0.7071-5.6568 1.0975-2.3394-5.1961 4.2286 2.8033-2.0319l0.49717 3.5223 1.6995 0.42706c-0.23836-2.0431 1.7125-3.5054-2.1323-6.4457z"/>
          <path id="path4143" stroke-width="1px" d="m344.71 487.64s-3.7426 2.2967-4.6354 4.1746c-1.0133 2.1313-1.3866 4.9492-0.35356 7.0711 1.0735 2.2049 3.7176 3.3726 6.0104 4.2426 0.99777 0.3786 2.2178 0.81093 3.182 0.35356 2.156-1.0227 2.9771-3.8053 3.8891-6.0104 0.38192-0.92342 0.625-2.932 0.625-2.932l-2.0392-0.25s-0.91745 6.6125-3.5355 7.4246c-2.4712 0.76657-5.567-1.5716-6.7175-3.8891-0.84503-1.7021-0.1-3.9365 0.7071-5.6568 1.0975-2.3394-5.1961 4.2286 2.8033-2.0319l0.49717 3.5223 1.6995 0.42706c-0.23836-2.0431 1.7125-3.5054-2.1323-6.4457z"/>
          <path id="path4145" stroke-width="1px" d="m351.09 488.14s-3.7426 2.2967-4.6354 4.1746c-1.0133 2.1313-1.3866 4.9492-0.35356 7.0711 1.0735 2.2049 3.7176 3.3726 6.0104 4.2426 0.99777 0.3786 2.2178 0.81093 3.182 0.35356 2.156-1.0227 3.2132-3.7218 3.8891-6.0104 0.3004-1.0172 0-3.182 0-3.182h-1.4142s-0.91745 6.6125-3.5355 7.4246c-2.4712 0.76657-5.567-1.5716-6.7175-3.8891-0.84503-1.7021-0.1-3.9365 0.7071-5.6568 1.0975-2.3394-5.1961 4.2286 2.8033-2.0319l0.49717 3.5223 1.9495-0.4479c-0.23836-2.0431 1.4625-2.6304-2.3823-5.5707z"/>
          <path id="path4147" stroke-width=".85807px" d="m333.72 484.19s2.0723-0.53131 3.1095-0.4027c0.75133 0.0932 1.7693 0.29759 2.113 0.83303 0.65533 1.0208-0.11903 2.3485-0.87004 3.3321-2.306 3.0203-6.054 5.7588-10.441 6.9419-2.2997 0.62024-7.3333-0.18512-7.3333-0.18512l-0.1243-1.7586s4.1536 0.54662 6.0904 0.0926c1.8101-0.42437 3.1391-1.5961 4.5988-2.4991 1.533-0.94837 3.0095-1.9564 4.3503-3.0544 0.6356-0.52054 2.1261-0.96186 1.7401-1.6661-0.32946-0.60112-1.998 0.48697-1.998 0.48697z"/>
        </g>
        <g id="g4149" stroke="#000" transform="matrix(1 0 0 -1 74.334 922.7)" fill="#1a1a1a">
          <path id="path4151" stroke-width="1px" d="m333.62 484.3s-4.8731 4.4505-6.0104 7.4246c-0.84292 2.2043-1.3866 4.9492-0.35356 7.0711 1.0735 2.2049 3.7176 3.3726 6.0104 4.2426 0.99777 0.3786 2.2178 0.81093 3.182 0.35356 2.156-1.0227 3.2132-3.7218 3.8891-6.0104 0.3004-1.0172 0-3.182 0-3.182h-1.4142s-0.91745 6.6125-3.5355 7.4246c-2.4712 0.76657-5.567-1.5716-6.7175-3.8891-0.84503-1.7021-0.10016-3.9366 0.7071-5.6568 1.098-2.3399 5.3033-5.6569 5.3033-5.6569z"/>
          <path id="path4153" stroke-width="1px" d="m338.44 487.39s-3.7426 2.2967-4.6354 4.1746c-1.0133 2.1313-1.3866 4.9492-0.35356 7.0711 1.0735 2.2049 3.7176 3.3726 6.0104 4.2426 0.99777 0.3786 2.2178 0.81093 3.182 0.35356 2.156-1.0227 3.2132-3.7218 3.8891-6.0104 0.3004-1.0172 0-3.182 0-3.182h-1.4142s-0.91745 6.6125-3.5355 7.4246c-2.4712 0.76657-5.567-1.5716-6.7175-3.8891-0.84503-1.7021-0.1-3.9365 0.7071-5.6568 1.0975-2.3394-5.1961 4.2286 2.8033-2.0319l0.49717 3.5223 1.6995 0.42706c-0.23836-2.0431 1.7125-3.5054-2.1323-6.4457z"/>
          <path id="path4155" stroke-width="1px" d="m344.71 487.64s-3.7426 2.2967-4.6354 4.1746c-1.0133 2.1313-1.3866 4.9492-0.35356 7.0711 1.0735 2.2049 3.7176 3.3726 6.0104 4.2426 0.99777 0.3786 2.2178 0.81093 3.182 0.35356 2.156-1.0227 2.9771-3.8053 3.8891-6.0104 0.38192-0.92342 0.625-2.932 0.625-2.932l-2.0392-0.25s-0.91745 6.6125-3.5355 7.4246c-2.4712 0.76657-5.567-1.5716-6.7175-3.8891-0.84503-1.7021-0.1-3.9365 0.7071-5.6568 1.0975-2.3394-5.1961 4.2286 2.8033-2.0319l0.49717 3.5223 1.6995 0.42706c-0.23836-2.0431 1.7125-3.5054-2.1323-6.4457z"/>
          <path id="path4157" stroke-width="1px" d="m351.09 488.14s-3.7426 2.2967-4.6354 4.1746c-1.0133 2.1313-1.3866 4.9492-0.35356 7.0711 1.0735 2.2049 3.7176 3.3726 6.0104 4.2426 0.99777 0.3786 2.2178 0.81093 3.182 0.35356 2.156-1.0227 3.2132-3.7218 3.8891-6.0104 0.3004-1.0172 0-3.182 0-3.182h-1.4142s-0.91745 6.6125-3.5355 7.4246c-2.4712 0.76657-5.567-1.5716-6.7175-3.8891-0.84503-1.7021-0.1-3.9365 0.7071-5.6568 1.0975-2.3394-5.1961 4.2286 2.8033-2.0319l0.49717 3.5223 1.9495-0.4479c-0.23836-2.0431 1.4625-2.6304-2.3823-5.5707z"/>
          <path id="path4159" stroke-width=".85807px" d="m333.72 484.19s2.0723-0.53131 3.1095-0.4027c0.75133 0.0932 1.7693 0.29759 2.113 0.83303 0.65533 1.0208-0.11903 2.3485-0.87004 3.3321-2.306 3.0203-6.054 5.7588-10.441 6.9419-2.2997 0.62024-7.3333-0.18512-7.3333-0.18512l-0.1243-1.7586s4.1536 0.54662 6.0904 0.0926c1.8101-0.42437 3.1391-1.5961 4.5988-2.4991 1.533-0.94837 3.0095-1.9564 4.3503-3.0544 0.6356-0.52054 2.1261-0.96186 1.7401-1.6661-0.32946-0.60112-1.998 0.48697-1.998 0.48697z"/>
        </g>
        <path id="path4161" d="m130 417.36h60l35-25h160v5h-155l-35 25h-65z" stroke="#000" stroke-width=".1" fill="#ccc"/>
        <rect id="rect4163" stroke-linejoin="round" style="color:#000000" ry="18" height="36" width="191" stroke="#000" stroke-linecap="round" y="425.36" x="204"/>
        <rect id="rect4165" stroke-linejoin="round" style="color:#000000" ry="0" height="21.003" width="191" stroke="#000" stroke-linecap="round" y="425.36" x="204" stroke-width=".99746"/>
        <rect id="rect4167" stroke-linejoin="round" style="color:#000000" ry="17.999" height="35.998" width="191.71" stroke="#000" stroke-linecap="round" y="411.36" x="203.65" stroke-width="1.0018" fill="#333"/>
        <rect id="rect4169" stroke-linejoin="round" style="color:#000000" ry="0" height="25" width="22" stroke="#000" stroke-linecap="round" y="394.36" x="126"/>
        <path id="path4171" stroke-linejoin="round" style="color:#000000" d="m167 385.36c0 4.9706-14.551 9-32.5 9s-32.5-4.0294-32.5-9 14.551-9 32.5-9 32.5 4.0294 32.5 9z" transform="translate(0,4)" stroke="#000" stroke-linecap="round" fill="#333"/>
        <path id="path4173" stroke-linejoin="round" style="color:#000000" d="m167 385.36c0 4.9706-14.551 9-32.5 9s-32.5-4.0294-32.5-9 14.551-9 32.5-9 32.5 4.0294 32.5 9z" stroke="#000" stroke-linecap="round"/>
        <path id="path4175" stroke-linejoin="round" style="color:#000000" d="m150 419.86c0 1.3807-5.5964 2.5-12.5 2.5s-12.5-1.1193-12.5-2.5 5.5964-2.5 12.5-2.5 12.5 1.1193 12.5 2.5z" transform="matrix(.87819 0 0 1.0031 16.279 -1.2899)" stroke="#000" stroke-linecap="round" stroke-width=".25"/>
        <path id="path4177" d="m309.5 389.86h25v20h-5v15c-5.7979 4.7875-10.523 3.1382-15 0v-15h-5z" stroke="#000" stroke-width=".1" fill="#b3b3b3"/>
        <path id="path4179" stroke-linejoin="round" style="color:#000000" d="m335 384.86c0 1.3807-5.5964 2.5-12.5 2.5s-12.5-1.1193-12.5-2.5 5.5964-2.5 12.5-2.5 12.5 1.1193 12.5 2.5z" transform="translate(-.5 5.5)" stroke="#000" stroke-linecap="round" stroke-width=".1" fill="#b3b3b3"/>
        <path id="path4181" d="m265 377.36h20v10h5v5h-30v-5h5z" stroke="#000" stroke-width=".25" fill="#4d4d4d"/>
        <path id="path4183" d="m265 397.36v5h5v5h10v-5h5v-5z" stroke="#000" stroke-width=".25" fill="#333"/>
        <path id="path4185" d="m272.23 407.66 0.24412 9.6985h5l-0.24412-9.6985z" stroke="#000" stroke-width=".25" fill="#808080"/>
        <path id="path4187" d="m359 377.36h20v10h5v5h-30v-5h5z" stroke="#000" stroke-width=".25" fill="#4d4d4d"/>
        <path id="path4189" d="m359 397.36v5h5v5h10v-5h5v-5z" stroke="#000" stroke-width=".25" fill="#333"/>
        <path id="path4191" d="m366.23 407.66v7.8284h5v-7.8284z" stroke="#000" stroke-width=".25" fill="#808080"/>
        <path id="path4193" stroke-linejoin="round" style="color:#000000" d="m283.2 422.86c0 3.4171-3.3241 6.1872-7.4246 6.1872s-7.4246-2.7701-7.4246-6.1872 3.3241-6.1872 7.4246-6.1872 7.4246 2.7701 7.4246 6.1872z" transform="matrix(1.0017 0 0 .80209 -1.3999 84.449)" stroke="#000" stroke-linecap="round" stroke-width=".25" fill="#b3b3b3"/>
        <path id="path4195" opacity=".36937" style="color:#000000" d="m110.31 468.12c0 1.074-1.2663 1.9446-2.8284 1.9446s-2.8284-0.8706-2.8284-1.9446c0-1.0739 1.2663-1.9445 2.8284-1.9445s2.8284 0.8706 2.8284 1.9445z" transform="translate(167.58 -45.255)" filter="url(#filter3933)" fill="#fff"/>
        <path id="path4197" filter="url(#filter3973)" d="m149.2 418.44h41.012l35.709-25.456h83.085v1.4142l-82.731-0.7071-35.709 25.456z" fill="#fff"/>
        <path id="path4199" filter="url(#filter3961)" d="m334.82 392.63h49.851v1.0607l-49.497 0.35355z" fill="#fff"/>
      </g>
      <g id="g4082" stroke="#000" transform="translate(73.859 -49.395)" fill="#1a1a1a">
        <path id="path3977-3" stroke-width="1px" d="m333.62 484.3s-4.8731 4.4505-6.0104 7.4246c-0.84292 2.2043-1.3866 4.9492-0.35356 7.0711 1.0735 2.2049 3.7176 3.3726 6.0104 4.2426 0.99777 0.3786 2.2178 0.81093 3.182 0.35356 2.156-1.0227 3.2132-3.7218 3.8891-6.0104 0.3004-1.0172 0-3.182 0-3.182h-1.4142s-0.91745 6.6125-3.5355 7.4246c-2.4712 0.76657-5.567-1.5716-6.7175-3.8891-0.84503-1.7021-0.10016-3.9366 0.7071-5.6568 1.098-2.3399 5.3033-5.6569 5.3033-5.6569z"/>
        <path id="path3977-0-5" stroke-width="1px" d="m338.44 487.39s-3.7426 2.2967-4.6354 4.1746c-1.0133 2.1313-1.3866 4.9492-0.35356 7.0711 1.0735 2.2049 3.7176 3.3726 6.0104 4.2426 0.99777 0.3786 2.2178 0.81093 3.182 0.35356 2.156-1.0227 3.2132-3.7218 3.8891-6.0104 0.3004-1.0172 0-3.182 0-3.182h-1.4142s-0.91745 6.6125-3.5355 7.4246c-2.4712 0.76657-5.567-1.5716-6.7175-3.8891-0.84503-1.7021-0.1-3.9365 0.7071-5.6568 1.0975-2.3394-5.1961 4.2286 2.8033-2.0319l0.49717 3.5223 1.6995 0.42706c-0.23836-2.0431 1.7125-3.5054-2.1323-6.4457z"/>
        <path id="path3977-0-4-5" stroke-width="1px" d="m344.71 487.64s-3.7426 2.2967-4.6354 4.1746c-1.0133 2.1313-1.3866 4.9492-0.35356 7.0711 1.0735 2.2049 3.7176 3.3726 6.0104 4.2426 0.99777 0.3786 2.2178 0.81093 3.182 0.35356 2.156-1.0227 2.9771-3.8053 3.8891-6.0104 0.38192-0.92342 0.625-2.932 0.625-2.932l-2.0392-0.25s-0.91745 6.6125-3.5355 7.4246c-2.4712 0.76657-5.567-1.5716-6.7175-3.8891-0.84503-1.7021-0.1-3.9365 0.7071-5.6568 1.0975-2.3394-5.1961 4.2286 2.8033-2.0319l0.49717 3.5223 1.6995 0.42706c-0.23836-2.0431 1.7125-3.5054-2.1323-6.4457z"/>
        <path id="path3977-0-46-8" stroke-width="1px" d="m351.09 488.14s-3.7426 2.2967-4.6354 4.1746c-1.0133 2.1313-1.3866 4.9492-0.35356 7.0711 1.0735 2.2049 3.7176 3.3726 6.0104 4.2426 0.99777 0.3786 2.2178 0.81093 3.182 0.35356 2.156-1.0227 3.2132-3.7218 3.8891-6.0104 0.3004-1.0172 0-3.182 0-3.182h-1.4142s-0.91745 6.6125-3.5355 7.4246c-2.4712 0.76657-5.567-1.5716-6.7175-3.8891-0.84503-1.7021-0.1-3.9365 0.7071-5.6568 1.0975-2.3394-5.1961 4.2286 2.8033-2.0319l0.49717 3.5223 1.9495-0.4479c-0.23836-2.0431 1.4625-2.6304-2.3823-5.5707z"/>
        <path id="path4080" stroke-width=".85807px" d="m333.72 484.19s2.0723-0.53131 3.1095-0.4027c0.75133 0.0932 1.7693 0.29759 2.113 0.83303 0.65533 1.0208-0.11903 2.3485-0.87004 3.3321-2.306 3.0203-6.054 5.7588-10.441 6.9419-2.2997 0.62024-7.3333-0.18512-7.3333-0.18512l-0.1243-1.7586s4.1536 0.54662 6.0904 0.0926c1.8101-0.42437 3.1391-1.5961 4.5988-2.4991 1.533-0.94837 3.0095-1.9564 4.3503-3.0544 0.6356-0.52054 2.1261-0.96186 1.7401-1.6661-0.32946-0.60112-1.998 0.48697-1.998 0.48697z"/>
      </g>
      <g id="g4089" stroke="#000" transform="matrix(1 0 0 -1 74.334 922.7)" fill="#1a1a1a">
        <path id="path4091" stroke-width="1px" d="m333.62 484.3s-4.8731 4.4505-6.0104 7.4246c-0.84292 2.2043-1.3866 4.9492-0.35356 7.0711 1.0735 2.2049 3.7176 3.3726 6.0104 4.2426 0.99777 0.3786 2.2178 0.81093 3.182 0.35356 2.156-1.0227 3.2132-3.7218 3.8891-6.0104 0.3004-1.0172 0-3.182 0-3.182h-1.4142s-0.91745 6.6125-3.5355 7.4246c-2.4712 0.76657-5.567-1.5716-6.7175-3.8891-0.84503-1.7021-0.10016-3.9366 0.7071-5.6568 1.098-2.3399 5.3033-5.6569 5.3033-5.6569z"/>
        <path id="path4093" stroke-width="1px" d="m338.44 487.39s-3.7426 2.2967-4.6354 4.1746c-1.0133 2.1313-1.3866 4.9492-0.35356 7.0711 1.0735 2.2049 3.7176 3.3726 6.0104 4.2426 0.99777 0.3786 2.2178 0.81093 3.182 0.35356 2.156-1.0227 3.2132-3.7218 3.8891-6.0104 0.3004-1.0172 0-3.182 0-3.182h-1.4142s-0.91745 6.6125-3.5355 7.4246c-2.4712 0.76657-5.567-1.5716-6.7175-3.8891-0.84503-1.7021-0.1-3.9365 0.7071-5.6568 1.0975-2.3394-5.1961 4.2286 2.8033-2.0319l0.49717 3.5223 1.6995 0.42706c-0.23836-2.0431 1.7125-3.5054-2.1323-6.4457z"/>
        <path id="path4095" stroke-width="1px" d="m344.71 487.64s-3.7426 2.2967-4.6354 4.1746c-1.0133 2.1313-1.3866 4.9492-0.35356 7.0711 1.0735 2.2049 3.7176 3.3726 6.0104 4.2426 0.99777 0.3786 2.2178 0.81093 3.182 0.35356 2.156-1.0227 2.9771-3.8053 3.8891-6.0104 0.38192-0.92342 0.625-2.932 0.625-2.932l-2.0392-0.25s-0.91745 6.6125-3.5355 7.4246c-2.4712 0.76657-5.567-1.5716-6.7175-3.8891-0.84503-1.7021-0.1-3.9365 0.7071-5.6568 1.0975-2.3394-5.1961 4.2286 2.8033-2.0319l0.49717 3.5223 1.6995 0.42706c-0.23836-2.0431 1.7125-3.5054-2.1323-6.4457z"/>
        <path id="path4097" stroke-width="1px" d="m351.09 488.14s-3.7426 2.2967-4.6354 4.1746c-1.0133 2.1313-1.3866 4.9492-0.35356 7.0711 1.0735 2.2049 3.7176 3.3726 6.0104 4.2426 0.99777 0.3786 2.2178 0.81093 3.182 0.35356 2.156-1.0227 3.2132-3.7218 3.8891-6.0104 0.3004-1.0172 0-3.182 0-3.182h-1.4142s-0.91745 6.6125-3.5355 7.4246c-2.4712 0.76657-5.567-1.5716-6.7175-3.8891-0.84503-1.7021-0.1-3.9365 0.7071-5.6568 1.0975-2.3394-5.1961 4.2286 2.8033-2.0319l0.49717 3.5223 1.9495-0.4479c-0.23836-2.0431 1.4625-2.6304-2.3823-5.5707z"/>
        <path id="path4099" stroke-width=".85807px" d="m333.72 484.19s2.0723-0.53131 3.1095-0.4027c0.75133 0.0932 1.7693 0.29759 2.113 0.83303 0.65533 1.0208-0.11903 2.3485-0.87004 3.3321-2.306 3.0203-6.054 5.7588-10.441 6.9419-2.2997 0.62024-7.3333-0.18512-7.3333-0.18512l-0.1243-1.7586s4.1536 0.54662 6.0904 0.0926c1.8101-0.42437 3.1391-1.5961 4.5988-2.4991 1.533-0.94837 3.0095-1.9564 4.3503-3.0544 0.6356-0.52054 2.1261-0.96186 1.7401-1.6661-0.32946-0.60112-1.998 0.48697-1.998 0.48697z"/>
      </g>
      <path id="path3025" d="m130 417.36h60l35-25h160v5h-155l-35 25h-65z" stroke="#000" stroke-width=".1" fill="#ccc"/>
      <rect id="rect2999" stroke-linejoin="round" style="color:#000000" ry="18" height="36" width="191" stroke="#000" stroke-linecap="round" y="425.36" x="204"/>
      <rect id="rect3001" stroke-linejoin="round" style="color:#000000" ry="0" height="21.003" width="191" stroke="#000" stroke-linecap="round" y="425.36" x="204" stroke-width=".99746"/>
      <rect id="rect2997" stroke-linejoin="round" style="color:#000000" ry="17.999" height="35.998" width="191.71" stroke="#000" stroke-linecap="round" y="411.36" x="203.65" stroke-width="1.0018" fill="#333"/>
      <rect id="rect3011" stroke-linejoin="round" style="color:#000000" ry="0" height="25" width="22" stroke="#000" stroke-linecap="round" y="394.36" x="126"/>
      <path id="path3015" stroke-linejoin="round" style="color:#000000" d="m167 385.36c0 4.9706-14.551 9-32.5 9s-32.5-4.0294-32.5-9 14.551-9 32.5-9 32.5 4.0294 32.5 9z" transform="translate(0,4)" stroke="#000" stroke-linecap="round" fill="#333"/>
      <path id="path3013" stroke-linejoin="round" style="color:#000000" d="m167 385.36c0 4.9706-14.551 9-32.5 9s-32.5-4.0294-32.5-9 14.551-9 32.5-9 32.5 4.0294 32.5 9z" stroke="#000" stroke-linecap="round"/>
      <path id="path3027" stroke-linejoin="round" style="color:#000000" d="m150 419.86c0 1.3807-5.5964 2.5-12.5 2.5s-12.5-1.1193-12.5-2.5 5.5964-2.5 12.5-2.5 12.5 1.1193 12.5 2.5z" transform="matrix(.87819 0 0 1.0031 16.279 -1.2899)" stroke="#000" stroke-linecap="round" stroke-width=".25"/>
      <path id="path3029" d="m309.5 389.86h25v20h-5v15c-5.7979 4.7875-10.523 3.1382-15 0v-15h-5z" stroke="#000" stroke-width=".1" fill="#b3b3b3"/>
      <path id="path3031" stroke-linejoin="round" style="color:#000000" d="m335 384.86c0 1.3807-5.5964 2.5-12.5 2.5s-12.5-1.1193-12.5-2.5 5.5964-2.5 12.5-2.5 12.5 1.1193 12.5 2.5z" transform="translate(-.5 5.5)" stroke="#000" stroke-linecap="round" stroke-width=".1" fill="#b3b3b3"/>
      <path id="path3060" d="m265 377.36h20v10h5v5h-30v-5h5z" stroke="#000" stroke-width=".25" fill="#4d4d4d"/>
      <path id="path3062" d="m265 397.36v5h5v5h10v-5h5v-5z" stroke="#000" stroke-width=".25" fill="#333"/>
      <path id="path3064" d="m272.23 407.66 0.24412 9.6985h5l-0.24412-9.6985z" stroke="#000" stroke-width=".25" fill="#808080"/>
      <path id="path3060-5" d="m359 377.36h20v10h5v5h-30v-5h5z" stroke="#000" stroke-width=".25" fill="#4d4d4d"/>
      <path id="path3062-1" d="m359 397.36v5h5v5h10v-5h5v-5z" stroke="#000" stroke-width=".25" fill="#333"/>
      <path id="path3064-1" d="m366.23 407.66v7.8284h5v-7.8284z" stroke="#000" stroke-width=".25" fill="#808080"/>
      <path id="path3121" stroke-linejoin="round" style="color:#000000" d="m283.2 422.86c0 3.4171-3.3241 6.1872-7.4246 6.1872s-7.4246-2.7701-7.4246-6.1872 3.3241-6.1872 7.4246-6.1872 7.4246 2.7701 7.4246 6.1872z" transform="matrix(1.0017 0 0 .80209 -1.3999 84.449)" stroke="#000" stroke-linecap="round" stroke-width=".25" fill="#b3b3b3"/>
      <path id="path3123" opacity=".36937" style="color:#000000" d="m110.31 468.12c0 1.074-1.2663 1.9446-2.8284 1.9446s-2.8284-0.8706-2.8284-1.9446c0-1.0739 1.2663-1.9445 2.8284-1.9445s2.8284 0.8706 2.8284 1.9445z" transform="translate(167.58 -45.255)" filter="url(#filter3933)" fill="#fff"/>
      <path id="path3937" filter="url(#filter3973)" d="m149.2 418.44h41.012l35.709-25.456h83.085v1.4142l-82.731-0.7071-35.709 25.456z" fill="#fff"/>
      <path id="path3939" filter="url(#filter3961)" d="m334.82 392.63h49.851v1.0607l-49.497 0.35355z" fill="#fff"/>
    </g>
  </g>
  <metadata>
    <rdf:RDF>
      <cc:Work>
        <dc:format>image/svg+xml</dc:format>
        <dc:type rdf:resource="http://purl.org/dc/dcmitype/StillImage"/>
        <cc:license rdf:resource="http://creativecommons.org/licenses/publicdomain/"/>
        <dc:publisher>
          <cc:Agent rdf:about="http://openclipart.org/">
            <dc:title>Openclipart</dc:title>
          </cc:Agent>
        </dc:publisher>
        <dc:title>Morse Code Key</dc:title>
        <dc:date>2013-10-11T13:41:33</dc:date>
        <dc:description>Key for sending amateur radio Morse Code.</dc:description>
        <dc:source>http://openclipart.org/detail/184784/morse-code-key-by-algotruneman-184784</dc:source>
        <dc:creator>
          <cc:Agent>
            <dc:title>algotruneman</dc:title>
          </cc:Agent>
        </dc:creator>
        <dc:subject>
          <rdf:Bag>
            <rdf:li>ham gear</rdf:li>
            <rdf:li>ham radio</rdf:li>
            <rdf:li>key</rdf:li>
            <rdf:li>morse code</rdf:li>
            <rdf:li>radio</rdf:li>
          </rdf:Bag>
        </dc:subject>
      </cc:Work>
      <cc:License rdf:about="http://creativecommons.org/licenses/publicdomain/">
        <cc:permits rdf:resource="http://creativecommons.org/ns#Reproduction"/>
        <cc:permits rdf:resource="http://creativecommons.org/ns#Distribution"/>
        <cc:permits rdf:resource="http://creativecommons.org/ns#DerivativeWorks"/>
      </cc:License>
    </rdf:RDF>
  </metadata>
</svg>
