<?xml version="1.0" encoding="iso-8859-1"?>
<!-- Generator: Adobe Illustrator 17.1.0, SVG Export Plug-In . SVG Version: 6.00 Build 0)  -->
<!DOCTYPE svg PUBLIC "-//W3C//DTD SVG 1.1//EN" "http://www.w3.org/Graphics/SVG/1.1/DTD/svg11.dtd">
<svg version="1.1" id="Capa_1" xmlns="http://www.w3.org/2000/svg" xmlns:xlink="http://www.w3.org/1999/xlink" x="0px" y="0px"
	 viewBox="0 0 455 455" style="enable-background:new 0 0 455 455;" xml:space="preserve">
<g>
	<path d="M263.356,286.243c-4.143,0-7.5,3.358-7.5,7.5v75.572H66.644v-189.22h57.74c4.143,0,7.5-3.358,7.5-7.5s-3.357-7.5-7.5-7.5
		h-57.74v-31.768c0-13.188,10.729-23.917,23.918-23.917h10.799c4.143,0,7.5-3.358,7.5-7.5s-3.357-7.5-7.5-7.5H90.562
		c-21.459,0-38.918,17.458-38.918,38.917v282.755c0,21.459,17.459,38.917,38.918,38.917h141.377
		c21.459,0,38.918-17.458,38.918-38.917V293.743C270.856,289.601,267.499,286.243,263.356,286.243z M231.938,440H90.562
		c-13.188,0-23.918-10.729-23.918-23.917v-31.768h189.213v31.768C255.856,429.271,245.127,440,231.938,440z"/>
	<path d="M195.566,105.324c-10.906-1.784-11.366-2.85-11.366-5.089c0-3.959,6.645-5.005,10.158-5.005
		c5.645,0,9.286,1.902,9.967,3.781c1.411,3.894,5.712,5.909,9.606,4.496c3.895-1.411,5.908-5.712,4.497-9.606
		c-3.056-8.433-12.279-13.671-24.07-13.671c-14.813,0-25.158,8.226-25.158,20.005c0,15.976,14.989,18.428,23.944,19.893
		c10.913,1.785,11.373,2.853,11.373,5.098c0,3.959-6.646,5.005-10.159,5.005c-5.645,0-9.287-1.903-9.967-3.783
		c-1.409-3.896-5.712-5.908-9.604-4.501c-3.895,1.409-5.91,5.709-4.501,9.604c3.053,8.438,12.276,13.68,24.072,13.68
		c14.813,0,25.159-8.226,25.159-20.005C219.518,109.242,204.524,106.789,195.566,105.324z"/>
	<path d="M333.562,105.324c-10.906-1.784-11.366-2.85-11.366-5.089c0-3.959,6.645-5.005,10.158-5.005
		c5.644,0,9.286,1.903,9.968,3.782c1.411,3.894,5.711,5.91,9.606,4.495c3.895-1.412,5.907-5.713,4.495-9.607
		c-3.057-8.432-12.279-13.67-24.069-13.67c-14.813,0-25.158,8.226-25.158,20.005c0,15.976,14.989,18.428,23.944,19.893
		c10.913,1.785,11.373,2.853,11.373,5.098c0,3.959-6.646,5.005-10.159,5.005c-5.646,0-9.288-1.904-9.969-3.784
		c-1.409-3.894-5.707-5.912-9.604-4.5c-3.895,1.41-5.909,5.71-4.499,9.605c3.054,8.438,12.277,13.679,24.072,13.679
		c14.813,0,25.159-8.226,25.159-20.005C357.513,109.242,342.52,106.789,333.562,105.324z"/>
	<path d="M287.29,80.693c-2.949-1.087-6.26-0.221-8.299,2.167l-15.635,18.317l-15.635-18.317c-2.039-2.389-5.353-3.255-8.299-2.167
		c-2.947,1.086-4.905,3.895-4.905,7.037v50c0,4.142,3.357,7.5,7.5,7.5s7.5-3.358,7.5-7.5v-29.661l8.135,9.53
		c1.425,1.669,3.509,2.631,5.704,2.631s4.279-0.961,5.704-2.631l8.135-9.53v29.661c0,4.142,3.357,7.5,7.5,7.5s7.5-3.358,7.5-7.5v-50
		C292.195,84.588,290.237,81.78,287.29,80.693z"/>
	<path d="M361.711,32.448C335.363,11.523,300.434,0,263.355,0c-37.079,0-72.01,11.524-98.356,32.448
		c-26.854,21.328-41.643,49.839-41.643,80.282c0,53.437,45.967,99.009,110.149,110.165c1.168,16.66-4.858,33.198-16.639,45.091
		c-2.131,2.151-2.759,5.371-1.594,8.165c1.165,2.793,3.895,4.613,6.922,4.613c34.298,0,63.751-24.484,70.694-57.815
		c64.351-11.061,110.467-56.692,110.467-110.219C403.356,82.288,388.566,53.776,361.711,32.448z M285.178,208.966
		c-3.906,0.54-6.728,4.01-6.457,7.944c0.002,0.035,0.005,0.069,0.008,0.104c-3.452,22.079-19.215,39.739-39.588,46.15
		c7.824-13.859,11.039-30.124,8.82-46.213c0.001-0.015,0.002-0.029,0.003-0.043c0.271-3.933-2.551-7.404-6.456-7.944
		c-59.77-8.261-103.151-48.733-103.151-96.233c0-53.889,56.074-97.73,124.999-97.73c68.926,0,125.001,43.841,125.001,97.73
		C388.356,160.239,344.964,200.713,285.178,208.966z"/>
</g>
<g>
</g>
<g>
</g>
<g>
</g>
<g>
</g>
<g>
</g>
<g>
</g>
<g>
</g>
<g>
</g>
<g>
</g>
<g>
</g>
<g>
</g>
<g>
</g>
<g>
</g>
<g>
</g>
<g>
</g>
</svg>
